<svg width="109" height="179" viewBox="0 0 109 179" fill="none" xmlns="http://www.w3.org/2000/svg">
<path opacity="0.2" d="M8.71718e-07 179L46 108.25C52.0833 98.9167 56.9583 91.0417 60.625 84.625C64.375 78.2083 67.0833 72.5833 68.75 67.75C70.4167 62.9167 71.25 58.1667 71.25 53.5C71.25 46.3333 69.2083 40.7083 65.125 36.625C61.125 32.5417 55.5 30.5 48.25 30.5C39.5 30.5 31.625 32.6667 24.625 37C17.7083 41.3333 11.5 46.25 6 51.75L2 19.5C9.5 13.5 17.4583 8.83333 25.875 5.5C34.375 2.16666 44 0.499988 54.75 0.499988C65.3333 0.499988 74.125 2.66666 81.125 6.99999C88.2083 11.3333 93.5 17.0833 97 24.25C100.5 31.4167 102.25 39.25 102.25 47.75C102.25 54.3333 101.333 60.9583 99.5 67.625C97.6667 74.2083 94.625 81.5417 90.375 89.625C86.2083 97.625 80.5833 107 73.5 117.75L53 149H108.5V179H8.71718e-07Z" fill="#1EA4DC"/>
</svg>
