<svg width="112" height="183" viewBox="0 0 112 183" fill="none" xmlns="http://www.w3.org/2000/svg">
<path opacity="0.2" d="M49.75 182.5C39.25 182.5 29.7083 181.292 21.125 178.875C12.5417 176.375 5.66667 173.833 0.5 171.25L8.25 144.25C13.75 147 20.0833 149.5 27.25 151.75C34.4167 153.917 41.9167 155 49.75 155C58.9167 155 66.25 152.917 71.75 148.75C77.25 144.5 80 138 80 129.25C80 120.5 77.2917 113.917 71.875 109.5C66.5417 105 58.5 102.75 47.75 102.75H30V72.75H47.5C56.5 72.75 63.375 70.6667 68.125 66.5C72.875 62.3333 75.25 56.5833 75.25 49.25C75.25 42.8333 73.0417 37.7083 68.625 33.875C64.2917 29.9583 58 28 49.75 28C42.6667 28 35.9583 29.0833 29.625 31.25C23.375 33.4167 17.1667 36.25 11 39.75L6.25 11.5C12 8.49999 18.8333 5.91666 26.75 3.74999C34.75 1.58332 43.5 0.499988 53 0.499988C64.4167 0.499988 74.0417 2.45832 81.875 6.37499C89.7083 10.2083 95.625 15.5 99.625 22.25C103.708 29 105.75 36.6667 105.75 45.25C105.75 56.5 102.75 66.0417 96.75 73.875C90.75 81.7083 82.25 87 71.25 89.75L71 84C83.1667 86 93.0417 90.875 100.625 98.625C108.208 106.375 112 116.583 112 129.25C112 140.667 109.375 150.333 104.125 158.25C98.9583 166.167 91.7083 172.208 82.375 176.375C73.0417 180.458 62.1667 182.5 49.75 182.5Z" fill="#1EA4DC"/>
</svg>
