<svg width="110" height="179" viewBox="0 0 110 179" fill="none" xmlns="http://www.w3.org/2000/svg">
<path opacity="0.2" d="M48.25 178.25C38.6667 178.25 29.875 177 21.875 174.5C13.875 172 6.66667 168.583 0.250001 164.25L7.75 135.25C13.9167 139.083 20.1667 142.208 26.5 144.625C32.9167 147.042 40 148.25 47.75 148.25C57.25 148.25 64.7917 145.75 70.375 140.75C75.9583 135.75 78.75 129 78.75 120.5C78.75 111.333 75.5833 104.167 69.25 99C62.9167 93.8333 53.75 91.25 41.75 91.25C36.25 91.25 30.75 91.5833 25.25 92.25C19.8333 92.9167 14.4167 93.75 9 94.75L20.25 -1.19209e-05H102.75L100.75 31H44.25L38.25 79.5L26.25 68.5C30.25 67.3333 34.4167 66.4583 38.75 65.875C43.1667 65.2917 47.9167 65 53 65C64.1667 65 74 67.2083 82.5 71.625C91.0833 75.9583 97.75 82.2917 102.5 90.625C107.333 98.875 109.75 108.833 109.75 120.5C109.75 132.5 107.083 142.833 101.75 151.5C96.5 160.083 89.25 166.708 80 171.375C70.75 175.958 60.1667 178.25 48.25 178.25Z" fill="#1EA4DC"/>
</svg>
